HIERARCHY
ROOT Hips
{
	OFFSET -0.001795 -0.223333 0.028219
	CHANNELS 6 Xposition Yposition Zposition Zrotation Yrotation Xrotation 
	JOINT LeftUpLeg
	{
		OFFSET 0.069520 -0.091406 -0.006815
		CHANNELS 3 Zrotation Yrotation Xrotation
		JOINT LeftLeg
		{
			OFFSET 0.034277 -0.375199 -0.004496
			CHANNELS 3 Zrotation Yrotation Xrotation
			JOINT LeftFoot
			{
				OFFSET -0.013596 -0.397961 -0.043693
				CHANNELS 3 Zrotation Yrotation Xrotation
				JOINT LeftToe
				{
					OFFSET 0.026358 -0.055791 0.119288
					CHANNELS 3 Zrotation Yrotation Xrotation
					End Site
					{
						OFFSET 0.000000 0.000000 0.000000
					}
				}
			}
		}
	}
	JOINT RightUpLeg
	{
		OFFSET -0.067670 -0.090522 -0.004320
		CHANNELS 3 Zrotation Yrotation Xrotation
		JOINT RightLeg
		{
			OFFSET -0.038290 -0.382569 -0.008850
			CHANNELS 3 Zrotation Yrotation Xrotation
			JOINT RightFoot
			{
				OFFSET 0.015774 -0.398415 -0.042312
				CHANNELS 3 Zrotation Yrotation Xrotation
				JOINT RightToe
				{
					OFFSET -0.025372 -0.048144 0.123348
					CHANNELS 3 Zrotation Yrotation Xrotation
					End Site
					{
						OFFSET 0.000000 0.000000 0.000000
					}
				}
			}
		}
	}
	JOINT Spine
	{
		OFFSET -0.002533 0.108963 -0.026696
		CHANNELS 3 Zrotation Yrotation Xrotation
		JOINT Spine1
		{
			OFFSET 0.005487 0.135180 0.001092
			CHANNELS 3 Zrotation Yrotation Xrotation
			JOINT Spine2
			{
				OFFSET 0.001457 0.052922 0.025425
				CHANNELS 3 Zrotation Yrotation Xrotation
				JOINT Neck
				{
					OFFSET -0.002778 0.213870 -0.042857
					CHANNELS 3 Zrotation Yrotation Xrotation
					JOINT Head
					{
						OFFSET 0.005152 0.064970 0.051349
						CHANNELS 3 Zrotation Yrotation Xrotation
						End Site
						{
							OFFSET 0.000000 0.000000 0.000000
						}
					}
				}
				JOINT LeftShoulder
				{
					OFFSET 0.078845 0.121749 -0.034090
					CHANNELS 3 Zrotation Yrotation Xrotation
					JOINT LeftArm
					{
						OFFSET 0.090977 0.030469 -0.008868
						CHANNELS 3 Zrotation Yrotation Xrotation
						JOINT LeftForeArm
						{
							OFFSET 0.259612 -0.012772 -0.027456
							CHANNELS 3 Zrotation Yrotation Xrotation
							JOINT LeftHand
							{
								OFFSET 0.249234 0.008986 -0.001171
								CHANNELS 3 Zrotation Yrotation Xrotation
								End Site
								{
									OFFSET 0.000000 0.000000 0.000000
								}
							}
						}
					}
				}
				JOINT RightShoulder
				{
					OFFSET -0.081759 0.118833 -0.038615
					CHANNELS 3 Zrotation Yrotation Xrotation
					JOINT RightArm
					{
						OFFSET -0.096012 0.032551 -0.009143
						CHANNELS 3 Zrotation Yrotation Xrotation
						JOINT RightForeArm
						{
							OFFSET -0.253742 -0.013329 -0.021401
							CHANNELS 3 Zrotation Yrotation Xrotation
							JOINT RightHand
							{
								OFFSET -0.255298 0.007772 -0.005559
								CHANNELS 3 Zrotation Yrotation Xrotation
								End Site
								{
									OFFSET 0.000000 0.000000 0.000000
								}
							}
						}
					}
				}
			}
		}
	}
}
MOTION
Frames: 17
Frame Time: 0.050000
0.000000 0.945038 0.000000 0.537128 -14.323914 7.748404 4.194291 -0.579626 -17.696756 -0.505170 0.001644 7.589893 -0.117911 1.712867 7.977445 0.000000 0.000000 0.000000 -5.130843 0.622434 -5.006620 8.533208 -0.673960 6.663609 -15.599075 -32.028521 12.287510 0.000000 0.000000 0.000000 -4.477296 0.320126 11.184548 4.911811 -1.052050 -20.039809 8.267315 17.338719 29.175554 3.127158 1.738095 -31.246843 0.000000 0.000000 0.000000 -22.311971 -4.210101 -1.555985 -65.208403 -10.151950 -4.529317 -14.898156 -37.230293 6.617080 0.000000 0.000000 0.000000 2.654934 26.673547 10.437655 39.095601 50.122254 12.020587 -24.027303 18.865083 -2.594651 0.000000 0.000000 0.000000 
-0.001689 0.943537 -0.000668 0.454403 -15.252844 8.299429 4.971968 -0.412921 -18.259556 -0.771467 0.077449 8.562085 -1.389619 -0.979317 6.731362 0.000000 0.000000 0.000000 -5.238125 0.698140 -5.973184 9.843052 -0.745767 5.477908 -18.977267 -36.234359 14.974843 0.000000 0.000000 0.000000 -4.155713 0.283592 10.920657 4.416416 -1.079353 -18.239596 8.940043 19.679311 28.102575 3.381307 2.047263 -33.393948 0.000000 0.000000 0.000000 -23.385930 -3.758600 -2.676145 -63.073113 -10.117004 -4.088462 -16.424175 -34.098699 6.203275 0.000000 0.000000 0.000000 1.525792 27.552341 10.588151 36.335549 52.375709 12.187758 -24.477110 15.705777 -2.129066 0.000000 0.000000 0.000000 
-0.002721 0.942994 -0.001047 1.421245 -12.147253 8.449347 3.386956 -0.829641 -19.433232 -0.071287 -0.122941 10.406047 -2.072702 -2.568110 5.084866 0.000000 0.000000 0.000000 -5.728505 0.724813 -6.673261 9.524057 -0.835399 6.133069 -19.712081 -37.519146 14.732266 0.000000 0.000000 0.000000 -3.465945 0.160150 11.369646 2.949889 -0.554994 -19.286734 8.431607 17.833496 27.210917 5.347321 0.978277 -32.505700 0.000000 0.000000 0.000000 -22.365309 -3.663576 -2.548959 -63.540561 -10.109597 -4.145337 -12.623689 -30.770563 4.497295 0.000000 0.000000 0.000000 3.470505 28.142561 11.544323 32.340527 53.060498 10.486662 -24.842623 14.441334 -1.949198 0.000000 0.000000 0.000000 
-0.003179 0.940788 -0.001021 1.298703 -12.226251 8.517107 4.143107 -0.698569 -19.736508 -0.117710 -0.108494 11.499254 -3.216946 -5.088043 4.229602 0.000000 0.000000 0.000000 -5.760193 0.768441 -7.388499 10.505289 -0.993401 7.740002 -21.695368 -39.899644 15.751811 0.000000 0.000000 0.000000 -3.591537 0.176136 11.144291 3.403193 -0.668059 -19.373919 9.658207 18.671644 27.979595 5.130412 1.342929 -34.148275 0.000000 0.000000 0.000000 -22.717397 -4.127088 -2.617462 -63.074889 -8.587798 -4.911275 -14.421233 -31.047516 4.965164 0.000000 0.000000 0.000000 1.519042 28.599294 11.068838 28.343935 55.284920 9.715315 -23.753631 10.380902 -1.194841 0.000000 0.000000 0.000000 
-0.003054 0.940421 -0.000529 1.472774 -10.849223 8.563891 4.077142 -0.776165 -19.940745 0.308108 -0.240172 12.036828 -3.321103 -5.221800 4.261053 0.000000 0.000000 0.000000 -5.929437 0.784267 -7.907004 10.918270 -1.127900 8.388006 -21.306174 -39.640536 15.392976 0.000000 0.000000 0.000000 -2.460369 -0.003182 10.697143 2.607655 -0.507783 -18.065746 9.764519 18.632127 26.766909 6.274660 0.892686 -33.960805 0.000000 0.000000 0.000000 -22.011125 -5.146763 -2.179175 -63.814816 -8.473154 -4.936798 -11.012561 -29.894276 3.776214 0.000000 0.000000 0.000000 1.902652 29.205115 11.566624 26.295617 57.744856 9.629855 -24.124578 4.317764 -0.102847 0.000000 0.000000 0.000000 
-0.001825 0.940235 0.000350 1.500742 -11.055866 8.789076 4.194014 -0.753849 -20.208833 -0.141474 -0.130281 12.123667 -2.598983 -3.788533 4.352110 0.000000 0.000000 0.000000 -6.103799 0.828341 -8.561249 11.198772 -1.178534 8.946930 -21.302759 -39.730126 15.185186 0.000000 0.000000 0.000000 -2.033819 -0.057214 10.305413 2.681199 -0.499021 -18.657944 10.609924 19.949498 27.186716 5.684461 1.389197 -34.265739 0.000000 0.000000 0.000000 -22.842114 -6.101402 -2.194836 -62.740227 -7.588761 -5.175720 -9.273347 -29.105109 3.133948 0.000000 0.000000 0.000000 1.889715 30.044640 11.983305 21.457664 58.891065 7.714005 -23.527272 -0.673358 0.776605 0.000000 0.000000 0.000000 
0.000155 0.939195 0.001541 1.874536 -11.269355 8.376328 4.056704 -0.765814 -19.992183 -0.398101 -0.063051 12.422978 -2.045178 -2.518860 4.904532 0.000000 0.000000 0.000000 -6.780719 0.862384 -9.226777 11.427114 -1.240002 9.906552 -21.741052 -40.191908 15.660138 0.000000 0.000000 0.000000 -1.227145 -0.160496 10.127109 2.107510 -0.345895 -18.741972 10.821281 20.965145 26.853462 5.874173 1.427789 -34.226281 0.000000 0.000000 0.000000 -21.200401 -6.253690 -2.067895 -63.990140 -6.701365 -5.884909 -8.068545 -29.302920 2.758048 0.000000 0.000000 0.000000 -0.208413 31.128300 11.655612 18.697312 61.713480 7.390865 -19.952137 -8.089355 1.774726 0.000000 0.000000 0.000000 
0.002245 0.937632 0.002678 1.855644 -12.215660 8.275121 4.369633 -0.668865 -19.827351 -1.056460 0.128211 12.896248 -0.541105 0.012891 3.864828 0.000000 0.000000 0.000000 -6.993260 0.895931 -9.599308 11.656002 -1.254408 10.600750 -20.688584 -39.209457 14.111513 0.000000 0.000000 0.000000 -0.015633 -0.286586 9.017423 1.194703 -0.110870 -18.996692 11.318973 22.100137 26.756953 5.879332 1.500212 -34.142000 0.000000 0.000000 0.000000 -20.352807 -7.184428 -1.546565 -64.885949 -4.687999 -7.152965 -6.758528 -29.922986 2.417353 0.000000 0.000000 0.000000 0.227172 32.014109 12.200082 13.525695 62.872185 4.867674 -16.230167 -13.414357 2.097217 0.000000 0.000000 0.000000 
0.003807 0.935095 0.003796 1.715928 -14.509404 7.251168 4.930690 -0.456953 -18.254773 -1.662253 0.354560 12.922117 0.863398 2.406172 2.698047 0.000000 0.000000 0.000000 -7.152171 0.911058 -9.428581 11.724244 -1.186798 11.871955 -20.321991 -38.731254 13.323581 0.000000 0.000000 0.000000 1.025086 -0.371565 8.383900 0.052005 0.121228 -18.477499 11.842367 23.948581 26.644976 7.415075 0.751543 -33.307624 0.000000 0.000000 0.000000 -18.908856 -7.799985 -1.026954 -64.698068 -4.055981 -7.571419 -7.857549 -30.198342 2.682861 0.000000 0.000000 0.000000 -1.829547 32.453762 11.491385 12.064842 64.587544 4.697096 -16.170243 -14.063375 2.141165 0.000000 0.000000 0.000000 
0.005020 0.933429 0.004588 1.436703 -17.689085 6.724026 6.133118 -0.108760 -17.374312 -3.154945 0.876323 13.277603 2.541634 5.675654 2.779439 0.000000 0.000000 0.000000 -7.130606 0.975546 -9.764032 11.168262 -0.965043 13.494914 -18.304250 -36.528994 9.378496 0.000000 0.000000 0.000000 2.056369 -0.454228 8.267098 0.079851 0.072204 -19.420754 11.537455 24.581830 26.652146 6.698989 0.800309 -32.379365 0.000000 0.000000 0.000000 -17.702296 -8.131947 -0.209335 -65.073595 -2.375206 -8.701350 -8.890664 -32.199745 3.280927 0.000000 0.000000 0.000000 -4.219870 32.027597 10.231330 10.621467 66.851436 4.259970 -19.941094 -9.547358 1.880289 0.000000 0.000000 0.000000 
0.005879 0.933303 0.004938 1.054204 -20.846454 6.870157 6.664163 0.096408 -16.171376 -3.586002 1.043329 12.127910 3.536285 7.515229 1.198308 0.000000 0.000000 0.000000 -6.791059 1.045817 -10.112829 10.201952 -0.653480 13.990272 -16.398755 -33.749006 6.886785 0.000000 0.000000 0.000000 2.770833 -0.452441 6.797294 -0.180977 0.101180 -20.132301 10.771915 23.253386 26.353522 7.297091 -0.060477 -32.011925 0.000000 0.000000 0.000000 -17.395860 -7.650576 0.546188 -64.301821 -2.427307 -8.554766 -10.276791 -30.667980 3.799781 0.000000 0.000000 0.000000 -6.652455 31.179197 8.892792 2.247168 68.370377 -1.281740 -27.560236 2.503360 -0.013921 0.000000 0.000000 0.000000 
0.007113 0.936886 0.004940 0.634483 -23.460746 7.145472 6.903266 0.198582 -14.537971 -3.963134 1.041853 9.274262 5.049359 10.450699 4.398627 0.000000 0.000000 0.000000 -6.770450 1.098760 -10.255443 8.804143 -0.337656 13.567629 -14.959806 -31.236777 7.111131 0.000000 0.000000 0.000000 2.838502 -0.463090 7.109975 1.813811 -0.356092 -21.659259 8.700561 21.708502 25.342663 7.915564 -0.919978 -31.541795 0.000000 0.000000 0.000000 -18.031396 -7.603919 1.341369 -63.095581 -1.232162 -8.916324 -12.007084 -30.190241 4.441469 0.000000 0.000000 0.000000 -11.572828 28.631895 6.646485 -16.046290 68.737975 -13.334002 -40.398742 13.428685 -3.682093 0.000000 0.000000 0.000000 
0.008847 0.940669 0.004775 0.391479 -25.202018 7.912280 6.929331 0.239677 -13.895984 -3.754525 0.938150 7.721002 5.532437 11.266593 5.097512 0.000000 0.000000 0.000000 -6.945203 1.138282 -10.259651 7.679790 -0.186518 11.630911 -13.156215 -28.297469 7.469639 0.000000 0.000000 0.000000 3.092189 -0.449893 6.242454 3.131233 -0.483997 -23.774084 7.346349 18.041377 25.488641 8.449327 -2.128148 -30.139852 0.000000 0.000000 0.000000 -19.745507 -7.336907 2.490051 -60.998952 -2.134959 -8.218300 -14.239803 -28.078294 4.968837 0.000000 0.000000 0.000000 -19.320157 25.327890 4.381431 -37.607204 63.088954 -25.622567 -53.760402 13.861923 -5.790243 0.000000 0.000000 0.000000 
0.011380 0.944552 0.005066 -0.172775 -26.675046 9.176910 6.728787 0.227040 -13.138342 -2.756885 0.605857 5.101157 6.391371 12.489917 7.831259 0.000000 0.000000 0.000000 -6.211160 1.174392 -10.535737 5.264052 0.052656 9.648731 -10.853544 -24.864940 9.168065 0.000000 0.000000 0.000000 3.745836 -0.451392 5.156785 3.956197 -0.493585 -25.191643 4.849040 14.570100 24.791351 10.522848 -4.014675 -29.428158 0.000000 0.000000 0.000000 -19.954356 -7.022673 3.641169 -60.203609 -1.319744 -8.630358 -15.492379 -28.471773 5.628446 0.000000 0.000000 0.000000 -25.567805 19.800276 3.381349 -48.178476 52.472810 -26.726512 -62.002299 1.929724 -0.968804 0.000000 0.000000 0.000000 
0.014688 0.947789 0.005723 -0.133310 -27.820357 9.453872 6.389001 0.177215 -12.396935 -2.828963 0.601712 4.145091 7.379243 14.111601 8.767647 0.000000 0.000000 0.000000 -6.701980 1.178853 -10.141464 4.363373 0.078266 7.895278 -9.946655 -23.575937 10.126989 0.000000 0.000000 0.000000 3.740356 -0.454716 5.241326 5.153440 -0.489216 -26.783147 3.110438 11.352345 24.687845 10.362089 -4.750082 -27.917679 0.000000 0.000000 0.000000 -21.718989 -4.941859 3.711357 -59.444074 -0.674174 -9.052037 -17.896732 -29.224670 6.738362 0.000000 0.000000 0.000000 -30.267905 13.381459 3.439001 -51.683790 42.505608 -23.412986 -61.256455 -11.075601 5.356909 0.000000 0.000000 0.000000 
0.018377 0.949439 0.006556 0.046392 -28.863733 9.698779 6.029032 0.149592 -12.431750 -2.946401 0.635877 3.973031 7.412397 13.974011 9.448102 0.000000 0.000000 0.000000 -6.900625 1.274004 -11.014653 2.553936 0.255146 7.745502 -8.430217 -21.498175 10.720460 0.000000 0.000000 0.000000 3.607250 -0.431396 4.960306 5.579928 -0.507472 -27.103399 1.298741 8.653006 23.572764 12.271218 -6.430314 -26.478558 0.000000 0.000000 0.000000 -21.472925 -1.891560 2.799155 -58.362375 0.745020 -9.549140 -20.940444 -29.629454 7.973902 0.000000 0.000000 0.000000 -32.130156 9.417792 4.209072 -51.456277 35.575893 -20.083407 -53.217808 -23.814684 9.814508 0.000000 0.000000 0.000000 
0.022056 0.948564 0.006982 0.053557 -30.313833 9.866997 5.721580 0.147146 -12.485363 -3.246852 0.721362 3.896468 7.711080 14.420286 9.270838 0.000000 0.000000 0.000000 -6.767928 1.399442 -12.254316 1.669254 0.450403 8.935005 -8.346113 -21.447308 10.641368 0.000000 0.000000 0.000000 3.309206 -0.374384 4.254933 5.743873 -0.459523 -27.521181 0.557172 7.307187 23.586300 13.406010 -7.548869 -25.439614 0.000000 0.000000 0.000000 -22.112739 -0.133583 2.427936 -58.349291 2.244629 -10.319835 -20.752332 -29.361754 7.980297 0.000000 0.000000 0.000000 -30.292341 7.212361 4.684378 -48.623481 32.705150 -17.907267 -44.390885 -28.457710 9.197244 0.000000 0.000000 0.000000 
